<svg width="641" height="643" viewBox="0 0 641 643" fill="none" xmlns="http://www.w3.org/2000/svg">
<path d="M19.3185 0.934536L19.3185 244.518M640.589 633.197L215.856 633.197M117.807 632.318L19.3185 632.318L19.3185 396.208" stroke="#F33C74" stroke-width="5"/>
<path d="M153.681 626.66V627.472H150.965V636.446H149.985V627.472H147.255V626.66H153.681ZM154.78 632.61C154.78 631.826 154.934 631.14 155.242 630.552C155.56 629.955 155.994 629.497 156.544 629.18C157.104 628.853 157.734 628.69 158.434 628.69C159.162 628.69 159.788 628.858 160.31 629.194C160.842 629.53 161.225 629.959 161.458 630.482V628.802H162.438V636.446H161.458V634.752C161.216 635.275 160.828 635.709 160.296 636.054C159.774 636.39 159.148 636.558 158.42 636.558C157.73 636.558 157.104 636.395 156.544 636.068C155.994 635.741 155.56 635.279 155.242 634.682C154.934 634.085 154.78 633.394 154.78 632.61ZM161.458 632.624C161.458 632.008 161.332 631.467 161.08 631C160.828 630.533 160.483 630.174 160.044 629.922C159.615 629.67 159.139 629.544 158.616 629.544C158.075 629.544 157.59 629.665 157.16 629.908C156.731 630.151 156.39 630.505 156.138 630.972C155.896 631.429 155.774 631.975 155.774 632.61C155.774 633.235 155.896 633.786 156.138 634.262C156.39 634.729 156.731 635.088 157.16 635.34C157.59 635.583 158.075 635.704 158.616 635.704C159.139 635.704 159.615 635.578 160.044 635.326C160.483 635.074 160.828 634.715 161.08 634.248C161.332 633.781 161.458 633.24 161.458 632.624ZM165.656 626.086V636.446H164.676V626.086H165.656ZM168.855 626.086V636.446H167.875V626.086H168.855ZM177.99 632.232C177.99 632.568 177.981 632.825 177.962 633.002H171.62C171.648 633.581 171.788 634.075 172.04 634.486C172.292 634.897 172.623 635.209 173.034 635.424C173.445 635.629 173.893 635.732 174.378 635.732C175.013 635.732 175.545 635.578 175.974 635.27C176.413 634.962 176.702 634.547 176.842 634.024H177.878C177.691 634.771 177.29 635.382 176.674 635.858C176.067 636.325 175.302 636.558 174.378 636.558C173.659 636.558 173.015 636.399 172.446 636.082C171.877 635.755 171.429 635.298 171.102 634.71C170.785 634.113 170.626 633.417 170.626 632.624C170.626 631.831 170.785 631.135 171.102 630.538C171.419 629.941 171.863 629.483 172.432 629.166C173.001 628.849 173.65 628.69 174.378 628.69C175.106 628.69 175.741 628.849 176.282 629.166C176.833 629.483 177.253 629.913 177.542 630.454C177.841 630.986 177.99 631.579 177.99 632.232ZM176.996 632.204C177.005 631.635 176.889 631.149 176.646 630.748C176.413 630.347 176.091 630.043 175.68 629.838C175.269 629.633 174.821 629.53 174.336 629.53C173.608 629.53 172.987 629.763 172.474 630.23C171.961 630.697 171.676 631.355 171.62 632.204H176.996ZM180.763 630.16C180.978 629.684 181.304 629.315 181.743 629.054C182.191 628.793 182.737 628.662 183.381 628.662V629.684H183.115C182.406 629.684 181.836 629.875 181.407 630.258C180.978 630.641 180.763 631.28 180.763 632.176V636.446H179.783V628.802H180.763V630.16ZM188.011 627.29V626.408H190.391V636.446H189.397V627.29H188.011Z" fill="#FAFAFA"/>
<path d="M14.7522 365.674L24.4122 365.674L24.4122 366.654L16.6982 366.654L24.4122 370.098L24.4122 370.812L16.7262 374.256L24.4122 374.256L24.4122 375.236L14.7522 375.236L14.7522 374.2L23.1242 370.462L14.7522 366.724L14.7522 365.674ZM20.5762 363.899C19.7922 363.899 19.1062 363.745 18.5182 363.437C17.9209 363.119 17.4635 362.685 17.1462 362.135C16.8195 361.575 16.6562 360.945 16.6562 360.245C16.6562 359.517 16.8242 358.891 17.1602 358.369C17.4962 357.837 17.9255 357.454 18.4482 357.221L16.7682 357.221L16.7682 356.241L24.4122 356.241L24.4122 357.221L22.7182 357.221C23.2409 357.463 23.6749 357.851 24.0202 358.383C24.3562 358.905 24.5242 359.531 24.5242 360.259C24.5242 360.949 24.3609 361.575 24.0342 362.135C23.7075 362.685 23.2455 363.119 22.6482 363.437C22.0509 363.745 21.3602 363.899 20.5762 363.899ZM20.5902 357.221C19.9742 357.221 19.4329 357.347 18.9662 357.599C18.4995 357.851 18.1402 358.196 17.8882 358.635C17.6362 359.064 17.5102 359.54 17.5102 360.063C17.5102 360.604 17.6315 361.089 17.8742 361.519C18.1169 361.948 18.4715 362.289 18.9382 362.541C19.3955 362.783 19.9415 362.905 20.5762 362.905C21.2015 362.905 21.7522 362.783 22.2282 362.541C22.6949 362.289 23.0542 361.948 23.3062 361.519C23.5489 361.089 23.6702 360.604 23.6702 360.063C23.6702 359.54 23.5442 359.064 23.2922 358.635C23.0402 358.196 22.6809 357.851 22.2142 357.599C21.7475 357.347 21.2062 357.221 20.5902 357.221ZM18.1262 353.023C17.6502 352.809 17.2815 352.482 17.0202 352.043C16.7589 351.595 16.6282 351.049 16.6282 350.405L17.6502 350.405L17.6502 350.671C17.6502 351.381 17.8415 351.95 18.2242 352.379C18.6069 352.809 19.2462 353.023 20.1422 353.023L24.4122 353.023L24.4122 354.003L16.7682 354.003L16.7682 353.023L18.1262 353.023ZM15.3262 348.441C15.3262 348.637 15.2562 348.805 15.1162 348.945C14.9762 349.085 14.8035 349.155 14.5982 349.155C14.3929 349.155 14.2249 349.085 14.0942 348.945C13.9542 348.805 13.8842 348.637 13.8842 348.441C13.8842 348.245 13.9542 348.077 14.0942 347.937C14.2249 347.797 14.3929 347.727 14.5982 347.727C14.8035 347.727 14.9762 347.797 15.1162 347.937C15.2562 348.077 15.3262 348.245 15.3262 348.441ZM16.7682 347.951L24.4122 347.951L24.4122 348.931L16.7682 348.931L16.7682 347.951ZM20.5762 346.18C19.7922 346.18 19.1062 346.026 18.5182 345.718C17.9209 345.4 17.4635 344.966 17.1462 344.416C16.8195 343.856 16.6562 343.226 16.6562 342.526C16.6562 341.798 16.8242 341.172 17.1602 340.65C17.4962 340.118 17.9255 339.735 18.4482 339.502L16.7682 339.502L16.7682 338.522L24.4122 338.522L24.4122 339.502L22.7182 339.502C23.2409 339.744 23.6749 340.132 24.0202 340.664C24.3562 341.186 24.5242 341.812 24.5242 342.54C24.5242 343.23 24.3609 343.856 24.0342 344.416C23.7075 344.966 23.2455 345.4 22.6482 345.718C22.0509 346.026 21.3602 346.18 20.5762 346.18ZM20.5902 339.502C19.9742 339.502 19.4329 339.628 18.9662 339.88C18.4995 340.132 18.1402 340.477 17.8882 340.916C17.6362 341.345 17.5102 341.821 17.5102 342.344C17.5102 342.885 17.6315 343.37 17.8742 343.8C18.1169 344.229 18.4715 344.57 18.9382 344.822C19.3955 345.064 19.9415 345.186 20.5762 345.186C21.2015 345.186 21.7522 345.064 22.2282 344.822C22.6949 344.57 23.0542 344.229 23.3062 343.8C23.5489 343.37 23.6702 342.885 23.6702 342.344C23.6702 341.821 23.5442 341.345 23.2922 340.916C23.0402 340.477 22.6809 340.132 22.2142 339.88C21.7475 339.628 21.2062 339.502 20.5902 339.502ZM16.6282 332.701C16.6282 331.786 16.9129 331.039 17.4822 330.461C18.0422 329.882 18.8589 329.593 19.9322 329.593L24.4122 329.593L24.4122 330.559L20.0442 330.559C19.2135 330.559 18.5789 330.769 18.1402 331.189C17.7015 331.599 17.4822 332.164 17.4822 332.883C17.4822 333.62 17.7155 334.208 18.1822 334.647C18.6489 335.085 19.3349 335.305 20.2402 335.305L24.4122 335.305L24.4122 336.285L16.7682 336.285L16.7682 335.305L18.0702 335.305C17.6035 335.062 17.2489 334.712 17.0062 334.255C16.7542 333.797 16.6282 333.279 16.6282 332.701ZM26.3302 315.505L24.3002 317.689C24.4402 318.165 24.5102 318.665 24.5102 319.187C24.5102 320.093 24.3002 320.914 23.8802 321.651C23.4509 322.389 22.8582 322.972 22.1022 323.401C21.3369 323.821 20.4735 324.031 19.5122 324.031C18.5509 324.031 17.6922 323.821 16.9362 323.401C16.1709 322.972 15.5782 322.389 15.1582 321.651C14.7289 320.914 14.5142 320.093 14.5142 319.187C14.5142 318.273 14.7289 317.447 15.1582 316.709C15.5782 315.972 16.1709 315.393 16.9362 314.973C17.6922 314.553 18.5509 314.343 19.5122 314.343C20.5015 314.343 21.3835 314.563 22.1582 315.001C22.9235 315.44 23.5115 316.042 23.9222 316.807L26.3302 314.189L26.3302 315.505ZM19.5122 323.023C20.3429 323.023 21.0755 322.855 21.7102 322.519C22.3355 322.183 22.8162 321.726 23.1522 321.147C23.4882 320.569 23.6562 319.915 23.6562 319.187C23.6562 318.459 23.4882 317.806 23.1522 317.227C22.8162 316.649 22.3355 316.191 21.7102 315.855C21.0755 315.519 20.3429 315.351 19.5122 315.351C18.6815 315.351 17.9535 315.519 17.3282 315.855C16.7029 316.191 16.2222 316.649 15.8862 317.227C15.5502 317.806 15.3822 318.459 15.3822 319.187C15.3822 319.915 15.5502 320.569 15.8862 321.147C16.2222 321.726 16.7029 322.183 17.3282 322.519C17.9535 322.855 18.6815 323.023 19.5122 323.023ZM16.7682 305.914L24.4122 305.914L24.4122 306.894L23.0682 306.894C23.5442 307.118 23.9082 307.464 24.1602 307.93C24.4122 308.397 24.5382 308.92 24.5382 309.498C24.5382 310.413 24.2582 311.16 23.6982 311.738C23.1289 312.317 22.3075 312.606 21.2342 312.606L16.7682 312.606L16.7682 311.64L21.1222 311.64C21.9529 311.64 22.5875 311.435 23.0262 311.024C23.4649 310.604 23.6842 310.035 23.6842 309.316C23.6842 308.579 23.4509 307.991 22.9842 307.552C22.5175 307.114 21.8315 306.894 20.9262 306.894L16.7682 306.894L16.7682 305.914ZM20.1982 296.761C20.5342 296.761 20.7909 296.77 20.9682 296.789L20.9682 303.131C21.5469 303.103 22.0415 302.963 22.4522 302.711C22.8629 302.459 23.1755 302.128 23.3902 301.717C23.5955 301.306 23.6982 300.858 23.6982 300.373C23.6982 299.738 23.5442 299.206 23.2362 298.777C22.9282 298.338 22.5129 298.049 21.9902 297.909L21.9902 296.873C22.7369 297.06 23.3482 297.461 23.8242 298.077C24.2909 298.684 24.5242 299.449 24.5242 300.373C24.5242 301.092 24.3655 301.736 24.0482 302.305C23.7215 302.874 23.2642 303.322 22.6762 303.649C22.0789 303.966 21.3835 304.125 20.5902 304.125C19.7969 304.125 19.1015 303.966 18.5042 303.649C17.9069 303.332 17.4495 302.888 17.1322 302.319C16.8149 301.75 16.6562 301.101 16.6562 300.373C16.6562 299.645 16.8149 299.01 17.1322 298.469C17.4495 297.918 17.8789 297.498 18.4202 297.209C18.9522 296.91 19.5449 296.761 20.1982 296.761ZM20.1702 297.755C19.6009 297.746 19.1155 297.862 18.7142 298.105C18.3129 298.338 18.0095 298.66 17.8042 299.071C17.5989 299.482 17.4962 299.93 17.4962 300.415C17.4962 301.143 17.7295 301.764 18.1962 302.277C18.6629 302.79 19.3209 303.075 20.1702 303.131L20.1702 297.755ZM23.4602 292.252L16.7682 289.676L16.7682 288.64L24.4122 291.706L24.4122 292.812L16.7682 295.878L16.7682 294.828L23.4602 292.252ZM20.1982 280.396C20.5342 280.396 20.7909 280.405 20.9682 280.424L20.9682 286.766C21.5469 286.738 22.0415 286.598 22.4522 286.346C22.8629 286.094 23.1755 285.763 23.3902 285.352C23.5955 284.941 23.6982 284.493 23.6982 284.008C23.6982 283.373 23.5442 282.841 23.2362 282.412C22.9282 281.973 22.5129 281.684 21.9902 281.544L21.9902 280.508C22.7369 280.695 23.3482 281.096 23.8242 281.712C24.2909 282.319 24.5242 283.084 24.5242 284.008C24.5242 284.727 24.3655 285.371 24.0482 285.94C23.7215 286.509 23.2642 286.957 22.6762 287.284C22.0789 287.601 21.3835 287.76 20.5902 287.76C19.7969 287.76 19.1015 287.601 18.5042 287.284C17.9069 286.967 17.4495 286.523 17.1322 285.954C16.8149 285.385 16.6562 284.736 16.6562 284.008C16.6562 283.28 16.8149 282.645 17.1322 282.104C17.4495 281.553 17.8789 281.133 18.4202 280.844C18.9522 280.545 19.5449 280.396 20.1982 280.396ZM20.1702 281.39C19.6009 281.381 19.1155 281.497 18.7142 281.74C18.3129 281.973 18.0095 282.295 17.8042 282.706C17.5989 283.117 17.4962 283.565 17.4962 284.05C17.4962 284.778 17.7295 285.399 18.1962 285.912C18.6629 286.425 19.3209 286.71 20.1702 286.766L20.1702 281.39ZM20.5762 279.051C19.7922 279.051 19.1062 278.892 18.5182 278.575C17.9209 278.258 17.4635 277.824 17.1462 277.273C16.8195 276.713 16.6562 276.083 16.6562 275.383C16.6562 274.711 16.8195 274.104 17.1462 273.563C17.4729 273.022 17.8975 272.625 18.4202 272.373L14.0522 272.373L14.0522 271.393L24.4122 271.393L24.4122 272.373L22.7042 272.373C23.2362 272.606 23.6749 272.989 24.0202 273.521C24.3562 274.053 24.5242 274.678 24.5242 275.397C24.5242 276.097 24.3609 276.727 24.0342 277.287C23.7075 277.838 23.2455 278.272 22.6482 278.589C22.0509 278.897 21.3602 279.051 20.5762 279.051ZM20.5902 272.373C19.9742 272.373 19.4329 272.499 18.9662 272.751C18.4995 273.003 18.1402 273.348 17.8882 273.787C17.6362 274.216 17.5102 274.692 17.5102 275.215C17.5102 275.756 17.6315 276.242 17.8742 276.671C18.1169 277.1 18.4715 277.441 18.9382 277.693C19.3955 277.936 19.9415 278.057 20.5762 278.057C21.2015 278.057 21.7522 277.936 22.2282 277.693C22.6949 277.441 23.0542 277.1 23.3062 276.671C23.5489 276.242 23.6702 275.756 23.6702 275.215C23.6702 274.692 23.5442 274.216 23.2922 273.787C23.0402 273.348 22.6809 273.003 22.2142 272.751C21.7475 272.499 21.2062 272.373 20.5902 272.373ZM24.5242 265.81C24.5242 266.528 24.3655 267.177 24.0482 267.756C23.7215 268.325 23.2642 268.778 22.6762 269.114C22.0789 269.44 21.3835 269.604 20.5902 269.604C19.7969 269.604 19.1062 269.436 18.5182 269.1C17.9209 268.764 17.4635 268.306 17.1462 267.728C16.8195 267.149 16.6562 266.5 16.6562 265.782C16.6562 265.063 16.8195 264.414 17.1462 263.836C17.4635 263.248 17.9209 262.79 18.5182 262.464C19.1062 262.128 19.7969 261.96 20.5902 261.96C21.3742 261.96 22.0649 262.128 22.6622 262.464C23.2595 262.8 23.7215 263.262 24.0482 263.85C24.3655 264.438 24.5242 265.091 24.5242 265.81ZM23.6702 265.81C23.6702 265.306 23.5582 264.839 23.3342 264.41C23.1009 263.98 22.7555 263.635 22.2982 263.374C21.8315 263.103 21.2622 262.968 20.5902 262.968C19.9182 262.968 19.3535 263.098 18.8962 263.36C18.4295 263.621 18.0842 263.966 17.8602 264.396C17.6269 264.825 17.5102 265.292 17.5102 265.796C17.5102 266.3 17.6269 266.766 17.8602 267.196C18.0842 267.625 18.4295 267.97 18.8962 268.232C19.3535 268.484 19.9182 268.61 20.5902 268.61C21.2622 268.61 21.8315 268.484 22.2982 268.232C22.7555 267.97 23.1009 267.63 23.3342 267.21C23.5582 266.78 23.6702 266.314 23.6702 265.81Z" fill="#FAFAFA"/>
</svg>
