<svg width="52" height="52" viewBox="0 0 52 52" fill="none" xmlns="http://www.w3.org/2000/svg">
<circle cx="25.5596" cy="25.824" r="23.0175" stroke="url(#paint0_radial)" stroke-width="5"/>
<g clip-path="url(#clip0)">
<path d="M22.9651 24.9235C22.9651 24.9235 25.5136 24.7348 25.5136 21.7539C25.5136 18.7729 23.4286 17.3181 20.7875 17.3181H12.0966V33.9767H20.7875C20.7875 33.9767 26.0929 34.1438 26.0929 29.0598C26.0929 29.0599 26.3242 24.9235 22.9651 24.9235V24.9235ZM20.1619 20.2789H20.7875C20.7875 20.2789 21.9688 20.2789 21.9688 22.0122C21.9688 23.7452 21.274 23.9965 20.486 23.9965H15.9259V20.2789H20.1619V20.2789ZM20.5419 31.0159H15.9259V26.5641H20.7875C20.7875 26.5641 22.5482 26.5411 22.5482 28.8518C22.5482 30.8004 21.2331 31.0012 20.5419 31.0159V31.0159ZM33.1686 21.5565C26.7458 21.5565 26.7515 27.9572 26.7515 27.9572C26.7515 27.9572 26.3108 34.3251 33.1686 34.3251C33.1686 34.3251 38.8834 34.6508 38.8834 29.8953H35.9444C35.9444 29.8953 36.0424 31.6861 33.2666 31.6861C33.2666 31.6861 30.3271 31.8826 30.3271 28.7879H38.9814C38.9814 28.7879 39.9283 21.5565 33.1686 21.5565ZM30.2948 26.5641C30.2948 26.5641 30.6537 23.9964 33.2339 23.9964C35.8136 23.9964 35.7813 26.5641 35.7813 26.5641H30.2948ZM36.4659 20.3508H29.5753V18.2995H36.4659V20.3508Z" fill="#64638C"/>
</g>
<defs>
<radialGradient id="paint0_radial" cx="0" cy="0" r="1" gradientUnits="userSpaceOnUse" gradientTransform="translate(-3.53742 -5.50587) rotate(49.7859) scale(95.4578 157.534)">
<stop offset="0.0379676" stop-color="#01B0E4"/>
<stop offset="0.370981" stop-color="#F33C74"/>
<stop offset="0.687864" stop-color="#381C56" stop-opacity="0.42"/>
</radialGradient>
<clipPath id="clip0">
<rect x="12.092" y="17.3181" width="26.9352" height="17.0117" fill="white"/>
</clipPath>
</defs>
</svg>
