<svg width="14" height="18" viewBox="0 0 14 18" fill="none" xmlns="http://www.w3.org/2000/svg">
<path d="M1.94839 17.0161C1.94839 17.2295 2.12143 17.4026 2.3349 17.4026H12.1459C12.3593 17.4026 12.5324 17.2295 12.5324 17.0161V4.49292H1.94839V17.0161ZM9.41449 6.62411H10.8639V15.0506H9.41449V6.62411ZM6.51567 6.62411H7.96508V15.0506H6.51567V6.62411ZM3.61685 6.62411H5.06626V15.0506H3.61685V6.62411Z" fill="white"/>
<path d="M10.4982 1.77622V0.386509C10.4982 0.17304 10.3251 0 10.1116 0H4.36909C4.15562 0 3.98258 0.17304 3.98258 0.386509V1.77622V2.01779V2.25936H1.28086C1.06739 2.25936 0.894348 2.4324 0.894348 2.64587V3.62327C0.894348 3.83672 1.06739 4.00978 1.28086 4.00978H1.94838H12.5324H13.1999C13.4133 4.00978 13.5864 3.83672 13.5864 3.62327V2.64587C13.5864 2.4324 13.4133 2.25936 13.1999 2.25936H10.4982V2.01779V1.77622ZM9.04875 2.17989H5.43199V2.01777V1.7762V1.44941H9.04875V1.77622V2.01779V2.17989Z" fill="white"/>
</svg>
