<svg width="52" height="52" viewBox="0 0 52 52" fill="none" xmlns="http://www.w3.org/2000/svg">
<path d="M28.9602 2.97653L28.9541 2.97578C28.1408 2.87673 27.3124 2.82078 26.4714 2.80947L26.4602 2.80927C26.3538 2.80735 26.2473 2.80646 26.1384 2.80646C26.0294 2.80646 25.9222 2.80735 25.8145 2.80922L25.8053 2.80934C24.9644 2.82068 24.1359 2.87663 23.3226 2.97569L23.3165 2.97643C23.0671 3.00617 22.816 3.04095 22.5638 3.07993C11.4607 4.79779 2.96094 14.4005 2.96094 25.9839C2.96094 38.7844 13.3378 49.1613 26.1384 49.1613C38.9389 49.1613 49.3158 38.7844 49.3158 25.9839C49.3158 14.4003 40.8158 4.79761 29.7126 3.07998C29.4605 3.04103 29.2095 3.00626 28.9602 2.97653Z" stroke="url(#paint0_radial)" stroke-width="5"/>
<path fill-rule="evenodd" clip-rule="evenodd" d="M8.36987 22.0686C8.36987 12.3593 16.2408 4.48844 25.95 4.48844C16.2422 4.48844 8.36987 12.3593 8.36987 22.0686ZM8.37235 22.367C8.38227 22.9628 8.42183 23.5515 8.48962 24.1315C8.49291 24.1602 8.4963 24.1889 8.4999 24.2176C8.50634 24.2705 8.51302 24.3233 8.51993 24.376C8.53735 24.5095 8.55638 24.6427 8.57697 24.7754C8.60826 24.9779 8.64301 25.1793 8.68116 25.3794C8.69086 25.4325 8.7013 25.4854 8.71214 25.538V25.5387C9.27396 28.3459 10.5044 30.9112 12.2303 33.0619C14.9174 36.411 18.8054 38.7552 23.2412 39.4414C23.4314 39.4708 23.623 39.4974 23.8153 39.5204C24.4338 39.5957 25.0624 39.6381 25.6989 39.6466C25.7828 39.6481 25.866 39.6488 25.95 39.6488C26.034 39.6488 26.1173 39.6481 26.2012 39.6466C26.8377 39.638 27.4663 39.5956 28.0848 39.5203C28.2771 39.4973 28.4687 39.4708 28.6588 39.4414C30.445 39.1651 32.1423 38.6199 33.7082 37.8486C38.5293 35.4752 42.1036 30.957 43.1879 25.5387C43.2022 25.4691 43.2159 25.3987 43.2288 25.3277C43.2955 24.9704 43.3523 24.6087 43.3975 24.2442C43.4018 24.2078 43.406 24.1712 43.4101 24.1345C43.4612 23.6977 43.4963 23.256 43.5148 22.81C43.4978 23.2197 43.4667 23.626 43.4218 24.0282L43.4198 24.0469C43.4166 24.076 43.4134 24.1053 43.4101 24.1345C42.7036 30.1703 38.9395 35.2717 33.7082 37.8486C33.0033 38.1956 32.2718 38.4968 31.5175 38.7482C30.6263 38.9204 30.3098 38.3729 30.3098 37.9043C30.3098 37.7123 30.3121 37.3758 30.315 36.926C30.321 36.0193 30.33 34.6523 30.33 33.0802C30.33 31.4399 29.7681 30.3699 29.1381 29.8246C32.1827 29.4859 35.3478 28.5115 36.6035 24.9165C36.6287 24.8462 36.6524 24.7744 36.6753 24.702C36.7456 24.4831 36.8081 24.2549 36.864 24.0167C36.8805 23.9457 36.8971 23.8739 36.9121 23.8007C37.0764 23.0222 37.1654 22.1432 37.1654 21.15C37.1654 19.2313 36.483 17.6627 35.3558 16.4314C35.5387 15.9887 36.1408 14.2005 35.1835 11.7788C35.1835 11.7788 33.7097 11.3067 30.3537 13.5813C28.9487 13.1917 27.4439 12.9965 25.95 12.9893C24.4561 12.9965 22.9521 13.1917 21.5492 13.5813C18.1903 11.3067 16.7136 11.7788 16.7136 11.7788C15.7592 14.2005 16.3613 15.9887 16.5436 16.4314C15.4191 17.6627 14.7317 19.2313 14.7317 21.15C14.7317 22.1424 14.8207 23.0214 14.9857 23.8C15.0008 23.8732 15.0165 23.9449 15.0331 24.016C15.0891 24.2542 15.1522 24.4831 15.2226 24.7019C15.2455 24.7744 15.27 24.8461 15.2943 24.9165C16.5493 28.5049 19.7059 29.4931 22.7419 29.8382C22.2388 30.2774 21.7832 31.053 21.6253 32.1896C20.6221 32.6388 18.0777 33.4152 16.5098 30.7279C16.5098 30.7279 15.5799 29.0402 13.8147 28.9161C13.8147 28.9161 12.099 28.8938 13.6949 29.9846C13.6949 29.9846 14.8466 30.5256 15.6466 32.557C15.6466 32.557 16.6785 35.6949 21.5693 34.6315C21.5735 35.412 21.58 36.1688 21.5851 36.7696C21.5896 37.2994 21.593 37.7079 21.593 37.9043C21.593 38.3685 21.2708 38.9131 20.3918 38.7503C17.1481 37.6705 14.3245 35.6715 12.2303 33.0619C10.472 30.8703 9.22792 28.2485 8.68116 25.3794C8.67801 25.3622 8.67494 25.345 8.67196 25.3277C8.63742 25.1447 8.60569 24.9605 8.57697 24.7754C8.55647 24.6427 8.53745 24.5096 8.51993 24.376C8.51421 24.3321 8.50867 24.2882 8.5033 24.2442C8.50215 24.2353 8.50102 24.2265 8.4999 24.2176C8.49641 24.1889 8.49298 24.1602 8.48962 24.1315C8.4857 24.0972 8.48193 24.0628 8.47817 24.0282C8.41726 23.4814 8.38168 22.9274 8.37235 22.367Z" fill="#7882A3" fill-opacity="0.7"/>
<defs>
<radialGradient id="paint0_radial" cx="0" cy="0" r="1" gradientUnits="userSpaceOnUse" gradientTransform="translate(-3.14103 57.51) rotate(-49.7859) scale(96.0559 158.521)">
<stop offset="0.0379676" stop-color="#01B0E4"/>
<stop offset="0.370981" stop-color="#F33C74"/>
<stop offset="0.687864" stop-color="#381C56" stop-opacity="0.42"/>
</radialGradient>
</defs>
</svg>
