<svg width="25" height="14" viewBox="0 0 25 14" fill="none" xmlns="http://www.w3.org/2000/svg">
<path d="M24.7912 6.09783C24.5683 5.84913 19.2057 0 12.4889 0C5.77212 0 0.409523 5.84913 0.186528 6.09783C-0.062176 6.37581 -0.062176 6.79604 0.186528 7.07401C0.409523 7.32272 5.77222 13.1718 12.4889 13.1718C19.2056 13.1718 24.5683 7.32272 24.7912 7.07401C25.0399 6.79604 25.0399 6.37581 24.7912 6.09783ZM12.4889 11.7083C9.6647 11.7083 7.3665 9.41011 7.3665 6.58592C7.3665 3.76173 9.6647 1.46354 12.4889 1.46354C15.3131 1.46354 17.6113 3.76173 17.6113 6.58592C17.6113 9.41011 15.3131 11.7083 12.4889 11.7083Z" fill="white"/>
<path d="M13.2207 5.12237C13.2207 4.38621 13.5861 3.7386 14.1421 3.34027C13.6432 3.08488 13.0867 2.92706 12.4889 2.92706C10.4715 2.92706 8.83004 4.56852 8.83004 6.58591C8.83004 8.6033 10.4715 10.2448 12.4889 10.2448C14.2951 10.2448 15.79 8.92591 16.0854 7.20264C14.6118 7.67708 13.2207 6.56259 13.2207 5.12237Z" fill="white"/>
</svg>
