<svg width="337" height="354" viewBox="0 0 337 354" fill="none" xmlns="http://www.w3.org/2000/svg">
<path d="M166.295 101.244L149.763 101.31L157.724 25.05L165.99 25.017L174.256 24.9836L182.826 101.178L166.295 101.244Z" fill="#BBBBBB" fill-opacity="0.69" style="mix-blend-mode:luminosity"/>
<path d="M157.724 25.0519L165.99 25.0139L169.363 25.0005L162.069 101.261L149.765 101.312L157.724 25.0519Z" fill="#BBBBBB" fill-opacity="0.69" style="mix-blend-mode:luminosity"/>
<path d="M164.075 349.371L147.107 323.615C146.594 322.837 146.332 321.919 146.358 320.987L151.896 118.51L166.962 118.45L182.027 118.389L189.186 320.816C189.219 321.748 188.965 322.668 188.458 323.45L171.698 349.341C169.912 352.099 165.882 352.115 164.075 349.371V349.371Z" fill="#BBBBBB" fill-opacity="0.69" style="mix-blend-mode:luminosity"/>
<path d="M151.896 118.506L162.806 118.465L157.355 320.868C157.333 321.811 157.591 322.745 158.105 323.535L173.281 346.889L171.695 349.342C169.915 352.099 165.882 352.115 164.071 349.372L147.103 323.616C146.596 322.837 146.332 321.922 146.355 320.985L151.896 118.506Z" fill="#BBBBBB" fill-opacity="0.69" style="mix-blend-mode:luminosity"/>
<path d="M194.311 99.3112L138.862 99.533C136.66 99.5416 134.882 101.334 134.891 103.536L134.943 116.411C134.952 118.613 136.743 120.391 138.946 120.382L194.394 120.16C196.596 120.151 198.374 118.359 198.365 116.157L198.314 103.282C198.305 101.08 196.513 99.3022 194.311 99.3112V99.3112Z" fill="#BBBBBB" fill-opacity="0.69" style="mix-blend-mode:luminosity"/>
<path d="M138.978 99.532L147.586 99.4969C146.56 100.244 145.895 101.463 145.897 102.83L145.953 117.03C145.959 118.4 146.639 119.609 147.674 120.347L139.066 120.382C136.797 120.39 134.951 118.56 134.943 116.292L134.891 103.651C134.879 101.386 136.714 99.5433 138.978 99.532V99.532Z" fill="#BBBBBB" fill-opacity="0.69" style="mix-blend-mode:luminosity"/>
<path d="M155.445 10.1903C147.67 15.8177 145.929 26.6824 151.557 34.4573C157.184 42.2321 168.049 43.9728 175.824 38.3453C183.598 32.7179 185.339 21.8532 179.712 14.0783C174.084 6.30352 163.219 4.56277 155.445 10.1903Z" fill="#BBBBBB" fill-opacity="0.69" style="mix-blend-mode:luminosity"/>
<path d="M165.564 6.89269C173.084 6.8597 179.505 11.6064 181.95 18.2804C179.86 17.3995 177.56 16.9167 175.148 16.9295C165.551 16.9665 157.801 24.782 157.838 34.3787C157.847 36.4587 158.222 38.4471 158.896 40.2898C152.669 37.6697 148.282 31.5225 148.257 24.3376C148.216 14.7376 155.968 6.9298 165.564 6.89269V6.89269Z" fill="#BBBBBB" fill-opacity="0.69" style="mix-blend-mode:luminosity"/>
<path d="M164.605 136.462C165.287 135.968 166.124 135.677 167.031 135.672C169.333 135.663 171.207 137.522 171.216 139.824L171.927 317.621C171.936 319.923 170.077 321.797 167.776 321.806C165.473 321.815 163.599 319.956 163.59 317.654L162.879 139.858C162.873 138.461 163.555 137.222 164.605 136.462V136.462Z" fill="#BBBBBB" fill-opacity="0.69" style="mix-blend-mode:luminosity"/>
</svg>
